<svg width="106" height="36" viewBox="0 0 106 36" fill="none" xmlns="http://www.w3.org/2000/svg">
<path d="M18.5097 0H19.4966L20.2663 0.0394737L21.1347 0.118421L21.865 0.217105L22.7334 0.375L23.3452 0.513158L24.2137 0.75L24.9242 0.986842L25.4768 1.18421L26.1084 1.44079L26.7992 1.75658L27.5097 2.11184L27.9834 2.38816L28.3979 2.625L28.8913 2.94079L29.3255 3.23684L29.6808 3.49342L30.1939 3.88816L30.411 4.06579L30.6676 4.28289L30.9439 4.51974L31.4176 4.95395L32.1676 5.70395L32.3058 5.86184L32.5229 6.09868L32.7005 6.31579L32.9571 6.61184L33.2137 6.94737L33.4308 7.22368L33.6873 7.57895L33.9834 8.01316L34.2992 8.50658L34.536 8.90132L34.7926 9.35526L35.0294 9.80921L35.3058 10.3618L35.6018 11.0329L35.8781 11.7434L36.1939 12.6711L36.4308 13.5197L36.6479 14.4868L36.786 15.2961L36.8847 16.0855L36.9637 17.0724L36.9834 17.7237V18.2763L36.9637 18.9276L36.9044 19.7171L36.8452 20.25L36.7663 20.8224L36.6479 21.5132L36.49 22.2434L36.2729 23.0526L36.0558 23.7434L35.8584 24.3158L35.5821 25.0066L35.2663 25.7171L34.8321 26.5855L34.5558 27.0592L34.3979 27.3355L34.161 27.7105L33.9044 28.1053L33.6676 28.4408L33.411 28.7961L33.2137 29.0526L32.9571 29.3684L32.7992 29.5658L32.5426 29.8618L32.1873 30.2566L31.911 30.5526L31.3584 31.1053L31.2005 31.2434L30.9242 31.5L30.7071 31.6776L30.5097 31.8553L30.2334 32.0724L29.9373 32.3092L29.6216 32.5461L29.2268 32.8224L28.8123 33.0987L28.3781 33.375L27.865 33.6711L27.2926 33.9868L26.7005 34.2829L25.99 34.5987L25.2794 34.875L24.5492 35.1316L23.74 35.3684L22.9505 35.5658L22.1413 35.7237L21.5097 35.8224L20.6413 35.9211L19.8321 35.9803L19.2597 36H18.6676L18.0755 35.9803L17.0689 35.9013L16.2795 35.8026L15.3716 35.6447L14.4439 35.4276L13.7334 35.2303L12.9439 34.9737L12.115 34.6579L11.5821 34.4211L11.1084 34.2039L10.4373 33.8684L9.96366 33.5921L9.6084 33.3947L9.21366 33.1382L8.93735 32.9605L8.26629 32.4868L7.98998 32.2697L7.7334 32.0724L7.41761 31.8158L7.22024 31.6382L7.00314 31.4605L6.68735 31.1645L6.35182 30.8487L5.95708 30.4539L5.81892 30.2961L5.62156 30.0987L5.44392 29.8816L5.22682 29.6447L5.04919 29.4276L4.79261 29.1118L4.55577 28.7961L4.27945 28.4211L3.96366 27.9671L3.76629 27.6513L3.52945 27.2763L3.27287 26.8224L3.0755 26.4671L2.73998 25.8158L2.46366 25.2039L2.22682 24.6316L1.97024 23.9408L1.7334 23.2105L1.49656 22.3421L1.31892 21.5329L1.18077 20.7434L1.06235 19.7961L1.00314 19.0066L0.983398 18.5526V17.4079L1.02287 16.6579L1.08208 16.0066L1.18077 15.2368L1.33866 14.3684L1.51629 13.5789L1.65445 13.0658L1.81235 12.5329L2.1084 11.6645L2.34524 11.0724L2.54261 10.6184L2.79919 10.0658L3.03603 9.5921L3.27287 9.15789L3.58866 8.625L3.8255 8.25L4.08208 7.85526L4.33866 7.5L4.53603 7.22368L4.7334 6.9671L4.97024 6.67105L5.1084 6.49342L5.28603 6.29605L5.46366 6.07895L5.68077 5.8421L5.75971 5.74342H5.79919L5.83866 5.66447L6.15445 5.34868L6.29261 5.19079L6.52945 4.97368L6.70708 4.79605L6.86498 4.65789L7.12156 4.42105L7.33866 4.24342L7.61498 4.00658L7.87156 3.80921L8.14787 3.59211L8.50314 3.33553L8.89787 3.05921L9.35182 2.76316L9.76629 2.50658L10.2597 2.23026L10.4768 2.11184L10.9308 1.875L11.2466 1.71711L11.9373 1.40132L12.6479 1.125L13.0229 0.986842L13.6939 0.769737L14.4834 0.552632L15.3321 0.355263L16.3387 0.177632L17.1873 0.0789474L17.9768 0.0197368L18.5097 0Z" fill="black"/>
<mask id="path-2-inside-1_1597_3965" fill="white">
<path d="M13.1 9.78906H24.8434L25.2776 9.84827L25.6921 9.96669L26.0079 10.1049L26.3237 10.3022L26.6394 10.5588L26.8763 10.8154L27.0539 11.072L27.1921 11.3088L27.3105 11.6049L27.4289 12.0193L27.725 13.4206L27.8829 14.1509L27.9026 14.1904L28.5737 14.2101L28.5539 13.5588V13.1838L28.5934 13.0456L28.6921 12.947L28.8105 12.8877L31.1592 12.868L31.7118 12.8877L31.8302 12.9667L31.9092 13.0654L31.9289 13.1641V14.9601L31.8697 15.118L31.771 15.197L31.4552 15.2759L30.2908 15.4733L28.9684 15.6904H28.8105L28.6526 15.6114L28.5934 15.5325L28.5737 15.4733V14.8417H28.021L28.1789 15.4733L28.3565 16.243L28.4552 16.322L28.6921 16.4601L28.9684 16.6575L29.2052 16.8746L29.4026 17.072L29.6394 17.4075L29.7973 17.6838L29.9552 18.0588L30.0539 18.4535L30.1131 18.8877L30.2908 20.9009L30.3302 21.5917V24.9075L30.271 25.2825L30.1921 25.4799L30.0539 25.697L29.8171 25.9338L29.6394 26.0522L29.3829 26.1509L29.225 26.1904L27.0144 26.2101H26.4223L26.146 26.1706L25.8302 26.0522L25.6131 25.9141L25.4158 25.7167L25.2579 25.4404L25.1789 25.2233L25.1394 24.9667L25.1197 24.3351H12.8434L12.8237 24.947L12.7842 25.2233L12.6658 25.5193L12.4684 25.7956L12.3105 25.9338L12.0934 26.072L11.8171 26.1706L11.521 26.2101H8.91576L8.65918 26.1706L8.38286 26.072L8.1855 25.9535L7.98813 25.7759L7.86971 25.618L7.75128 25.3812L7.69207 25.1443L7.67234 24.9667L7.6526 24.0588V21.8088L7.69207 20.9206L7.86971 18.947L7.92892 18.493L8.0276 18.0983L8.12628 17.8417L8.28418 17.5259L8.48155 17.2299L8.65918 17.0127L8.95523 16.7167L9.3105 16.4601L9.62628 16.2825L9.6855 16.0456L9.92234 14.8417L9.40918 14.8614V15.3943L9.33023 15.572L9.19207 15.6706L9.05392 15.6904L8.20523 15.5522L6.40918 15.2562L6.1526 15.1772L6.05392 15.0588L6.03418 14.9799V13.0851L6.09339 12.9864L6.25128 12.8877L6.42892 12.868H8.97497L9.19207 12.8877L9.3105 12.9667L9.38944 13.0851L9.40918 13.4009V14.2101L10.0605 14.1904L10.1592 13.7759L10.4552 12.3943L10.6131 11.7233L10.7315 11.4272L10.8697 11.1509L11.0276 10.9141L11.2644 10.6377L11.4026 10.4996L11.6789 10.2825L12.0342 10.0654L12.4289 9.90748L12.7644 9.82854L13.1 9.78906Z"/>
</mask>
<path d="M13.1 9.78906H24.8434L25.2776 9.84827L25.6921 9.96669L26.0079 10.1049L26.3237 10.3022L26.6394 10.5588L26.8763 10.8154L27.0539 11.072L27.1921 11.3088L27.3105 11.6049L27.4289 12.0193L27.725 13.4206L27.8829 14.1509L27.9026 14.1904L28.5737 14.2101L28.5539 13.5588V13.1838L28.5934 13.0456L28.6921 12.947L28.8105 12.8877L31.1592 12.868L31.7118 12.8877L31.8302 12.9667L31.9092 13.0654L31.9289 13.1641V14.9601L31.8697 15.118L31.771 15.197L31.4552 15.2759L30.2908 15.4733L28.9684 15.6904H28.8105L28.6526 15.6114L28.5934 15.5325L28.5737 15.4733V14.8417H28.021L28.1789 15.4733L28.3565 16.243L28.4552 16.322L28.6921 16.4601L28.9684 16.6575L29.2052 16.8746L29.4026 17.072L29.6394 17.4075L29.7973 17.6838L29.9552 18.0588L30.0539 18.4535L30.1131 18.8877L30.2908 20.9009L30.3302 21.5917V24.9075L30.271 25.2825L30.1921 25.4799L30.0539 25.697L29.8171 25.9338L29.6394 26.0522L29.3829 26.1509L29.225 26.1904L27.0144 26.2101H26.4223L26.146 26.1706L25.8302 26.0522L25.6131 25.9141L25.4158 25.7167L25.2579 25.4404L25.1789 25.2233L25.1394 24.9667L25.1197 24.3351H12.8434L12.8237 24.947L12.7842 25.2233L12.6658 25.5193L12.4684 25.7956L12.3105 25.9338L12.0934 26.072L11.8171 26.1706L11.521 26.2101H8.91576L8.65918 26.1706L8.38286 26.072L8.1855 25.9535L7.98813 25.7759L7.86971 25.618L7.75128 25.3812L7.69207 25.1443L7.67234 24.9667L7.6526 24.0588V21.8088L7.69207 20.9206L7.86971 18.947L7.92892 18.493L8.0276 18.0983L8.12628 17.8417L8.28418 17.5259L8.48155 17.2299L8.65918 17.0127L8.95523 16.7167L9.3105 16.4601L9.62628 16.2825L9.6855 16.0456L9.92234 14.8417L9.40918 14.8614V15.3943L9.33023 15.572L9.19207 15.6706L9.05392 15.6904L8.20523 15.5522L6.40918 15.2562L6.1526 15.1772L6.05392 15.0588L6.03418 14.9799V13.0851L6.09339 12.9864L6.25128 12.8877L6.42892 12.868H8.97497L9.19207 12.8877L9.3105 12.9667L9.38944 13.0851L9.40918 13.4009V14.2101L10.0605 14.1904L10.1592 13.7759L10.4552 12.3943L10.6131 11.7233L10.7315 11.4272L10.8697 11.1509L11.0276 10.9141L11.2644 10.6377L11.4026 10.4996L11.6789 10.2825L12.0342 10.0654L12.4289 9.90748L12.7644 9.82854L13.1 9.78906Z" fill="black" stroke="black" stroke-width="4" mask="url(#path-2-inside-1_1597_3965)"/>
<path d="M27.6133 23.7871L27.5469 23.6719L27.4678 23.5342L27.4033 23.4209L27.291 23.3535L27.1924 23.2939L27.1016 23.2402L26.9971 23.2266L26.8398 23.207L26.8096 23.2031H26.7793L23.0859 23.1855L23.0732 22.2354V22.1895L23.0635 22.1445L23.0244 21.9473L22.9893 21.7744L22.8545 21.6611L22.7354 21.5625L22.6074 21.4561L22.4414 21.4473L22.0664 21.4277L22.0537 21.4268H15.7812L15.7588 21.4287L15.541 21.4482L15.4326 21.458L15.3389 21.5127L15.2002 21.5918L15.1104 21.6426L15.0488 21.7256L14.9893 21.8047L14.9209 21.8955L14.8994 22.0068L14.8789 22.1055L14.8691 22.1533V23.1855L11.0645 23.2031H10.9746L10.8916 23.2354L10.7334 23.2939L10.5908 23.3477L10.502 23.4717L10.4033 23.6104L10.3105 23.7402V24.2109L10.376 24.3262L10.4551 24.4639L10.5225 24.583L10.6416 24.6504L10.7793 24.7295L10.8906 24.793L11.0186 24.7949L11.6914 24.8057V24.8975L11.667 24.9629L11.627 25.0166L11.5771 25.0596L11.541 25.0781H8.9707L8.9248 25.0674L8.92285 25.0664L8.81055 24.8408H8.80371V21.5908L8.8418 20.8262L8.97852 19.2764L9.03516 18.7441L9.09961 18.458L9.17773 18.2373L9.31934 17.9707L9.45996 17.7891H9.63086L9.71484 17.5361L9.88086 17.4111L10.1055 17.2822L10.3174 17.1914L10.6289 17.1094L10.8955 17.0781H27.1504L27.4287 17.124L27.7109 17.2188L27.9775 17.3525L28.1904 17.4902L28.3457 17.6299L28.4248 17.709L28.5479 17.8467L28.6914 18.0703L28.8193 18.3271L28.9121 18.6211L28.9648 18.9854L29.1396 20.9648V20.9658L29.1787 21.6904V24.8574L29.1621 24.9404L29.1416 24.9814L29.1074 25.0215L29.0332 25.0713L29.0166 25.0781H26.3916L26.3496 25.0625L26.2656 24.9863L26.2314 24.8047L26.7676 24.7949L26.8115 24.7939L26.8555 24.7852L27.0527 24.7461L27.1777 24.7207L27.2754 24.6396L27.3936 24.541L27.4736 24.4746L27.5205 24.3809L27.5605 24.3018L27.6133 24.1963V23.7871Z" fill="white" stroke="white"/>
<path d="M24.2719 10.3906H24.7653L25.1008 10.4301L25.4364 10.5288L25.7522 10.6867L25.9693 10.8248L26.1666 10.9827L26.3443 11.1604L26.5219 11.4169L26.6798 11.713L26.7982 12.1077L26.9758 12.9367L27.489 15.384L27.6074 15.9367L27.2127 15.9564H25.7324L10.3574 15.9367L10.3772 15.759L11.0679 12.463L11.1864 11.9498L11.3048 11.634L11.4429 11.3775L11.6403 11.1209L11.8772 10.884L12.0745 10.7459L12.2522 10.6472L12.4101 10.5683L12.6864 10.4696L13.0022 10.4104L24.2719 10.3906Z" fill="white"/>
<path d="M27.4297 19.1719L27.5312 19.1924L27.5762 19.2109L27.6289 19.248L27.6729 19.3086L27.7285 19.4424L27.752 19.5654V19.7617L27.7217 19.8975L27.6631 20.0215L27.6133 20.082L27.5908 20.1016L27.5684 20.1143L27.459 20.1484L27.4326 20.1523H24.5547L24.4785 20.1357L24.3857 20.0957L24.3213 20.0508L24.2705 20.0049L24.2168 19.9209L24.1865 19.8438V19.7969L24.4863 19.7246L25.9121 19.4502L27.3223 19.1777L27.3643 19.1719H27.4297Z" fill="black" stroke="black" stroke-width="2"/>
<path d="M10.8633 19.2188L11.4697 19.3232L12.9814 19.6133V19.6143L13.9219 19.8018L13.9814 19.8203L13.9717 19.8623L13.9092 19.9854L13.8535 20.0557L13.8164 20.0928L13.7451 20.1367L13.707 20.1504L13.6611 20.1592H10.7852L10.6924 20.1445L10.5879 20.1094L10.5713 20.0996L10.5449 20.0723L10.4893 19.9756L10.4512 19.876L10.4277 19.7578V19.5918L10.4512 19.4668L10.499 19.3477L10.5283 19.3018L10.5801 19.25L10.6123 19.2305L10.6416 19.2188H10.8633Z" fill="black" stroke="black" stroke-width="2"/>
<mask id="path-7-inside-2_1597_3965" fill="white">
<path d="M16.0197 22.5312H21.9408L21.9605 22.551V23.676H18.9901H16.0197L16 23.6562V22.551L16.0197 22.5312Z"/>
</mask>
<path d="M16.0197 22.5312H21.9408L21.9605 22.551V23.676H18.9901H16.0197L16 23.6562V22.551L16.0197 22.5312Z" fill="black"/>
<path d="M16.0197 22.5312V20.5312H15.1913L14.6055 21.117L16.0197 22.5312ZM21.9408 22.5312L23.355 21.117L22.7692 20.5312H21.9408V22.5312ZM21.9605 22.551H23.9605V21.7226L23.3748 21.1368L21.9605 22.551ZM21.9605 23.676V25.676H23.9605V23.676H21.9605ZM16.0197 23.676L14.6055 25.0902L15.1913 25.676H16.0197V23.676ZM16 23.6562H14V24.4847L14.5858 25.0705L16 23.6562ZM16 22.551L14.5858 21.1368L14 21.7226V22.551H16ZM16.0197 24.5312H21.9408V20.5312H16.0197V24.5312ZM20.5266 23.9455L20.5463 23.9652L23.3748 21.1368L23.355 21.117L20.5266 23.9455ZM19.9605 22.551V23.676H23.9605V22.551H19.9605ZM17.434 22.2618L17.4142 22.242L14.5858 25.0705L14.6055 25.0902L17.434 22.2618ZM18 23.6562V22.551H14V23.6562H18ZM17.4142 23.9652L17.434 23.9455L14.6055 21.117L14.5858 21.1368L17.4142 23.9652ZM21.9605 21.676H18.9901V25.676H21.9605V21.676ZM18.9901 21.676H16.0197V25.676H18.9901V21.676Z" fill="black" mask="url(#path-7-inside-2_1597_3965)"/>
<mask id="path-9-inside-3_1597_3965" fill="white">
<path d="M27.3286 18.7734L27.5457 18.7932L27.7825 18.8919L27.9404 19.03L28.0786 19.2471L28.1575 19.5037V19.8392L28.0786 20.0958L27.9404 20.2932L27.7825 20.4313L27.6049 20.5103L27.526 20.53H24.4273L24.2299 20.4511L23.9931 20.234L23.8549 20.0366L23.8154 19.9379V19.6813L23.9141 19.5432L24.072 19.4642L24.3681 19.3853L25.9075 19.0695L27.2102 18.7932L27.3286 18.7734Z"/>
</mask>
<path d="M27.3286 18.7734L27.5457 18.7932L27.7825 18.8919L27.9404 19.03L28.0786 19.2471L28.1575 19.5037V19.8392L28.0786 20.0958L27.9404 20.2932L27.7825 20.4313L27.6049 20.5103L27.526 20.53H24.4273L24.2299 20.4511L23.9931 20.234L23.8549 20.0366L23.8154 19.9379V19.6813L23.9141 19.5432L24.072 19.4642L24.3681 19.3853L25.9075 19.0695L27.2102 18.7932L27.3286 18.7734Z" fill="black"/>
<path d="M27.3286 18.7734L27.5097 16.7817L27.2535 16.7584L26.9998 16.8006L27.3286 18.7734ZM27.5457 18.7932L28.3149 16.947L28.032 16.8291L27.7268 16.8014L27.5457 18.7932ZM27.7825 18.8919L29.0995 17.3867L28.8535 17.1714L28.5518 17.0457L27.7825 18.8919ZM27.9404 19.03L29.6278 17.9563L29.4736 17.714L29.2574 17.5249L27.9404 19.03ZM28.0786 19.2471L29.9901 18.659L29.9108 18.401L29.7659 18.1734L28.0786 19.2471ZM28.1575 19.5037H30.1575V19.203L30.0691 18.9155L28.1575 19.5037ZM28.1575 19.8392L30.0691 20.4274L30.1575 20.14V19.8392H28.1575ZM28.0786 20.0958L29.7171 21.2427L29.8976 20.9848L29.9901 20.684L28.0786 20.0958ZM27.9404 20.2932L29.2574 21.7983L29.4399 21.6387L29.5789 21.4401L27.9404 20.2932ZM27.7825 20.4313L28.5948 22.259L28.8716 22.1359L29.0995 21.9365L27.7825 20.4313ZM27.6049 20.5103L28.09 22.4506L28.2585 22.4084L28.4172 22.3379L27.6049 20.5103ZM27.526 20.53V22.53H27.7722L28.011 22.4703L27.526 20.53ZM24.4273 20.53L23.6845 22.387L24.0421 22.53H24.4273V20.53ZM24.2299 20.4511L22.8785 21.9254L23.1478 22.1723L23.4871 22.308L24.2299 20.4511ZM23.9931 20.234L22.3546 21.3809L22.4802 21.5603L22.6416 21.7083L23.9931 20.234ZM23.8549 20.0366L21.9979 20.7794L22.0838 20.9941L22.2164 21.1835L23.8549 20.0366ZM23.8154 19.9379H21.8154V20.3231L21.9585 20.6807L23.8154 19.9379ZM23.8154 19.6813L22.188 18.5189L21.8154 19.0404V19.6813H23.8154ZM23.9141 19.5432L23.0197 17.7543L22.5754 17.9765L22.2866 18.3807L23.9141 19.5432ZM24.072 19.4642L23.5567 17.5318L23.3598 17.5843L23.1776 17.6754L24.072 19.4642ZM24.3681 19.3853L23.9662 17.4261L23.9091 17.4378L23.8527 17.4528L24.3681 19.3853ZM25.9075 19.0695L26.3094 21.0287L26.3225 21.026L25.9075 19.0695ZM27.2102 18.7932L26.8814 16.8204L26.8381 16.8276L26.7952 16.8367L27.2102 18.7932ZM27.1475 20.7652L27.3646 20.785L27.7268 16.8014L27.5097 16.7817L27.1475 20.7652ZM26.7765 20.6393L27.0133 20.738L28.5518 17.0457L28.3149 16.947L26.7765 20.6393ZM26.4655 20.397L26.6234 20.5352L29.2574 17.5249L29.0995 17.3867L26.4655 20.397ZM26.2531 20.1038L26.3913 20.3209L29.7659 18.1734L29.6278 17.9563L26.2531 20.1038ZM26.167 19.8353L26.246 20.0919L30.0691 18.9155L29.9901 18.659L26.167 19.8353ZM26.1575 19.5037V19.8392H30.1575V19.5037H26.1575ZM26.246 19.2511L26.167 19.5076L29.9901 20.684L30.0691 20.4274L26.246 19.2511ZM26.4401 18.9489L26.302 19.1462L29.5789 21.4401L29.7171 21.2427L26.4401 18.9489ZM26.6234 18.788L26.4655 18.9262L29.0995 21.9365L29.2574 21.7983L26.6234 18.788ZM26.9703 18.6037L26.7926 18.6827L28.4172 22.3379L28.5948 22.259L26.9703 18.6037ZM27.1198 18.57L27.0409 18.5897L28.011 22.4703L28.09 22.4506L27.1198 18.57ZM27.526 18.53H24.4273V22.53H27.526V18.53ZM25.1701 18.6731L24.9727 18.5941L23.4871 22.308L23.6845 22.387L25.1701 18.6731ZM25.5814 18.9768L25.3445 18.7597L22.6416 21.7083L22.8785 21.9254L25.5814 18.9768ZM25.6315 19.087L25.4934 18.8897L22.2164 21.1835L22.3546 21.3809L25.6315 19.087ZM25.7119 19.2938L25.6724 19.1951L21.9585 20.6807L21.9979 20.7794L25.7119 19.2938ZM25.8154 19.9379V19.6813H21.8154V19.9379H25.8154ZM25.4429 20.8438L25.5416 20.7057L22.2866 18.3807L22.188 18.5189L25.4429 20.8438ZM24.8085 21.332L24.9664 21.2531L23.1776 17.6754L23.0197 17.7543L24.8085 21.332ZM24.5873 21.3967L24.8834 21.3177L23.8527 17.4528L23.5567 17.5318L24.5873 21.3967ZM24.7699 21.3445L26.3094 21.0287L25.5056 17.1103L23.9662 17.4261L24.7699 21.3445ZM26.3225 21.026L27.6252 20.7496L26.7952 16.8367L25.4925 17.113L26.3225 21.026ZM27.539 20.766L27.6574 20.7462L26.9998 16.8006L26.8814 16.8204L27.539 20.766Z" fill="black" mask="url(#path-9-inside-3_1597_3965)"/>
<mask id="path-11-inside-4_1597_3965" fill="white">
<path d="M10.6321 18.8047H10.9479L13.0006 19.1994L13.9677 19.3968L14.165 19.456L14.2835 19.535L14.3821 19.6731L14.4019 19.7323V19.8705L14.3229 20.0481L14.2045 20.2257L14.0466 20.3836L13.8098 20.5021L13.7308 20.5218H10.6519L10.4545 20.4428L10.2769 20.3047L10.1387 20.1073L10.0598 19.8902L10.04 19.7915V19.535L10.0992 19.2981L10.2177 19.0613L10.3756 18.9231L10.5729 18.8244L10.6321 18.8047Z"/>
</mask>
<path d="M10.6321 18.8047H10.9479L13.0006 19.1994L13.9677 19.3968L14.165 19.456L14.2835 19.535L14.3821 19.6731L14.4019 19.7323V19.8705L14.3229 20.0481L14.2045 20.2257L14.0466 20.3836L13.8098 20.5021L13.7308 20.5218H10.6519L10.4545 20.4428L10.2769 20.3047L10.1387 20.1073L10.0598 19.8902L10.04 19.7915V19.535L10.0992 19.2981L10.2177 19.0613L10.3756 18.9231L10.5729 18.8244L10.6321 18.8047Z" fill="white"/>
<path d="M10.6321 18.8047V16.8047H10.3076L9.99969 16.9073L10.6321 18.8047ZM10.9479 18.8047L11.3256 16.8407L11.1385 16.8047H10.9479V18.8047ZM13.0006 19.1994L13.4005 17.2398L13.3894 17.2376L13.3783 17.2354L13.0006 19.1994ZM13.9677 19.3968L14.5424 17.4811L14.456 17.4552L14.3676 17.4372L13.9677 19.3968ZM14.165 19.456L15.2744 17.7919L15.0259 17.6262L14.7397 17.5404L14.165 19.456ZM14.2835 19.535L15.9109 18.3725L15.6979 18.0742L15.3929 17.8709L14.2835 19.535ZM14.3821 19.6731L16.2795 19.0407L16.1844 18.7554L16.0096 18.5106L14.3821 19.6731ZM14.4019 19.7323H16.4019V19.4078L16.2992 19.0999L14.4019 19.7323ZM14.4019 19.8705L16.2295 20.6828L16.4019 20.2949V19.8705H14.4019ZM14.3229 20.0481L15.987 21.1575L16.0814 21.0159L16.1506 20.8604L14.3229 20.0481ZM14.2045 20.2257L15.6187 21.64L15.7588 21.4999L15.8686 21.3351L14.2045 20.2257ZM14.0466 20.3836L14.941 22.1725L15.2313 22.0273L15.4608 21.7978L14.0466 20.3836ZM13.8098 20.5021L14.2948 22.4423L14.5078 22.3891L14.7042 22.2909L13.8098 20.5021ZM13.7308 20.5218V22.5218H13.977L14.2159 22.4621L13.7308 20.5218ZM10.6519 20.5218L9.9091 22.3787L10.2667 22.5218H10.6519V20.5218ZM10.4545 20.4428L9.22663 22.0215L9.44954 22.1949L9.71173 22.2998L10.4545 20.4428ZM10.2769 20.3047L8.63842 21.4516L8.81119 21.6984L9.049 21.8834L10.2769 20.3047ZM10.1387 20.1073L8.25914 20.7908L8.34917 21.0384L8.50026 21.2542L10.1387 20.1073ZM10.0598 19.8902L8.09861 20.2824L8.12836 20.4312L8.18019 20.5737L10.0598 19.8902ZM10.04 19.7915H8.04004V19.9896L8.07888 20.1838L10.04 19.7915ZM10.04 19.535L8.09975 19.0499L8.04004 19.2887V19.535H10.04ZM10.0992 19.2981L8.3104 18.4037L8.21221 18.6L8.15896 18.813L10.0992 19.2981ZM10.2177 19.0613L8.90066 17.5561L8.60469 17.8151L8.42882 18.1668L10.2177 19.0613ZM10.3756 18.9231L9.48114 17.1343L9.25165 17.249L9.05856 17.418L10.3756 18.9231ZM10.5729 18.8244L9.94048 16.9271L9.80564 16.972L9.67851 17.0356L10.5729 18.8244ZM10.6321 20.8047H10.9479V16.8047H10.6321V20.8047ZM10.5702 20.7687L12.6229 21.1634L13.3783 17.2354L11.3256 16.8407L10.5702 20.7687ZM12.6006 21.159L13.5678 21.3564L14.3676 17.4372L13.4005 17.2398L12.6006 21.159ZM13.393 21.3124L13.5903 21.3717L14.7397 17.5404L14.5424 17.4811L13.393 21.3124ZM13.0556 21.1201L13.1741 21.1991L15.3929 17.8709L15.2744 17.7919L13.0556 21.1201ZM12.656 20.6974L12.7547 20.8356L16.0096 18.5106L15.9109 18.3725L12.656 20.6974ZM12.4848 20.3056L12.5045 20.3648L16.2992 19.0999L16.2795 19.0407L12.4848 20.3056ZM12.4019 19.7323V19.8705H16.4019V19.7323H12.4019ZM12.5743 19.0582L12.4953 19.2358L16.1506 20.8604L16.2295 20.6828L12.5743 19.0582ZM12.6588 18.9387L12.5404 19.1163L15.8686 21.3351L15.987 21.1575L12.6588 18.9387ZM12.7903 18.8115L12.6324 18.9694L15.4608 21.7978L15.6187 21.64L12.7903 18.8115ZM13.1522 18.5948L12.9153 18.7132L14.7042 22.2909L14.941 22.1725L13.1522 18.5948ZM13.3247 18.5618L13.2458 18.5815L14.2159 22.4621L14.2948 22.4423L13.3247 18.5618ZM13.7308 18.5218H10.6519V22.5218H13.7308V18.5218ZM11.3947 18.6648L11.1973 18.5859L9.71173 22.2998L9.9091 22.3787L11.3947 18.6648ZM11.6824 18.8641L11.5048 18.726L9.049 21.8834L9.22663 22.0215L11.6824 18.8641ZM11.9153 19.1578L11.7772 18.9604L8.50026 21.2542L8.63842 21.4516L11.9153 19.1578ZM12.0183 19.4238L11.9394 19.2067L8.18019 20.5737L8.25914 20.7908L12.0183 19.4238ZM12.0209 19.498L12.0012 19.3993L8.07888 20.1838L8.09861 20.2824L12.0209 19.498ZM12.04 19.7915V19.535H8.04004V19.7915H12.04ZM11.9803 20.02L12.0395 19.7832L8.15896 18.813L8.09975 19.0499L11.9803 20.02ZM11.8881 20.1925L12.0065 19.9557L8.42882 18.1668L8.3104 18.4037L11.8881 20.1925ZM11.5347 20.5664L11.6926 20.4283L9.05856 17.418L8.90066 17.5561L11.5347 20.5664ZM11.27 20.712L11.4674 20.6133L9.67851 17.0356L9.48114 17.1343L11.27 20.712ZM11.2054 20.7218L11.2646 20.7021L9.99969 16.9073L9.94048 16.9271L11.2054 20.7218Z" fill="black" mask="url(#path-11-inside-4_1597_3965)"/>
<mask id="path-13-inside-5_1597_3965" fill="white">
<path d="M29.2055 13.5H31.2581L31.2779 13.5197V14.6447L31.1989 14.6842L29.2844 15H29.166V13.5197L29.2055 13.5Z"/>
</mask>
<path d="M29.2055 13.5H31.2581L31.2779 13.5197V14.6447L31.1989 14.6842L29.2844 15H29.166V13.5197L29.2055 13.5Z" fill="black"/>
<path d="M29.2055 13.5V11.5H28.7334L28.3111 11.7111L29.2055 13.5ZM31.2581 13.5L32.6723 12.0858L32.0865 11.5H31.2581V13.5ZM31.2779 13.5197H33.2779V12.6913L32.6921 12.1055L31.2779 13.5197ZM31.2779 14.6447L32.1723 16.4336L33.2779 15.8808V14.6447H31.2779ZM31.1989 14.6842L31.5244 16.6575L31.8228 16.6083L32.0933 16.4731L31.1989 14.6842ZM29.2844 15V17H29.4483L29.6099 16.9733L29.2844 15ZM29.166 15H27.166V17H29.166V15ZM29.166 13.5197L28.2716 11.7309L27.166 12.2837V13.5197H29.166ZM29.2055 15.5H31.2581V11.5H29.2055V15.5ZM29.8439 14.9142L29.8636 14.934L32.6921 12.1055L32.6723 12.0858L29.8439 14.9142ZM29.2779 13.5197V14.6447H33.2779V13.5197H29.2779ZM30.3834 12.8559L30.3045 12.8954L32.0933 16.4731L32.1723 16.4336L30.3834 12.8559ZM30.8734 12.7109L28.9589 13.0267L29.6099 16.9733L31.5244 16.6575L30.8734 12.7109ZM29.2844 13H29.166V17H29.2844V13ZM31.166 15V13.5197H27.166V15H31.166ZM30.0604 15.3086L30.0999 15.2889L28.3111 11.7111L28.2716 11.7309L30.0604 15.3086Z" fill="white" mask="url(#path-13-inside-5_1597_3965)"/>
<path d="M7.10023 13.5H8.75812L8.77786 13.5197V15H8.6397L7.77128 14.8421L6.70549 14.6645L6.66602 14.625V13.5395L6.68575 13.5197L7.10023 13.5Z" fill="white"/>
<path d="M105.487 12.1501V15.2019H97.1338V12.1501H105.487ZM99.0302 8.64062H102.877V22.2972C102.877 22.6723 102.931 22.9647 103.04 23.1745C103.148 23.378 103.299 23.521 103.491 23.6037C103.69 23.6863 103.919 23.7277 104.178 23.7277C104.358 23.7277 104.539 23.7118 104.719 23.68C104.9 23.6418 105.039 23.6132 105.135 23.5941L105.74 26.6173C105.547 26.6808 105.276 26.754 104.927 26.8366C104.578 26.9256 104.154 26.9797 103.654 26.9987C102.727 27.0369 101.914 26.9065 101.216 26.6077C100.523 26.3089 99.9844 25.8448 99.5991 25.2154C99.2138 24.586 99.0242 23.7912 99.0302 22.8312V8.64062Z" fill="black"/>
<path d="M86.391 18.3393V26.8078H82.5439V12.1595H86.2104V14.7439H86.3729C86.6799 13.892 87.1947 13.2181 87.9171 12.7221C88.6396 12.2199 89.5155 11.9688 90.545 11.9688C91.5083 11.9688 92.3481 12.1913 93.0646 12.6363C93.781 13.0814 94.3379 13.7171 94.7352 14.5437C95.1326 15.3638 95.3312 16.3429 95.3312 17.481V26.8078H91.4842V18.2057C91.4902 17.3093 91.2735 16.6099 90.834 16.1077C90.3945 15.599 89.7895 15.3447 89.0189 15.3447C88.5011 15.3447 88.0436 15.4624 87.6462 15.6976C87.2549 15.9328 86.9479 16.2761 86.7251 16.7276C86.5084 17.1726 86.397 17.7098 86.391 18.3393Z" fill="black"/>
<path d="M73.9204 27.0939C72.4935 27.0939 71.2654 26.7888 70.2359 26.1784C69.2124 25.5617 68.4238 24.6907 67.8699 23.5654C67.316 22.4337 67.0391 21.0954 67.0391 19.5504C67.0391 18.0436 67.316 16.7212 67.8699 15.5832C68.4238 14.4451 69.2034 13.5582 70.2088 12.9224C71.2202 12.2866 72.4062 11.9688 73.7668 11.9688C74.6819 11.9688 75.5338 12.1245 76.3225 12.436C77.1172 12.7412 77.8095 13.2022 78.3995 13.8189C78.9955 14.4356 79.4591 15.2112 79.7902 16.1458C80.1214 17.0741 80.2869 18.1612 80.2869 19.4074V20.5232H68.5743V18.0055H76.6657C76.6657 17.4206 76.5452 16.9024 76.3044 16.451C76.0636 15.9996 75.7295 15.6467 75.302 15.3924C74.8806 15.1317 74.3899 15.0014 73.8301 15.0014C73.2461 15.0014 72.7283 15.1445 72.2768 15.4306C71.8313 15.7103 71.4821 16.0886 71.2292 16.5654C70.9764 17.0359 70.847 17.5604 70.8409 18.139V20.5327C70.8409 21.2575 70.9674 21.8837 71.2202 22.4114C71.4791 22.9391 71.8433 23.346 72.3129 23.6321C72.7825 23.9182 73.3394 24.0613 73.9836 24.0613C74.411 24.0613 74.8023 23.9977 75.1575 23.8705C75.5127 23.7434 75.8168 23.5526 76.0696 23.2983C76.3225 23.044 76.5151 22.7325 76.6476 22.3637L80.2056 22.6117C80.025 23.5145 79.6548 24.3029 79.0949 24.9768C78.541 25.6444 77.8246 26.1657 76.9456 26.5408C76.0726 26.9095 75.0642 27.0939 73.9204 27.0939Z" fill="black"/>
<path d="M55.0137 20.008H58.337L60.0076 22.2778L61.6512 24.2995L64.7487 28.4003H61.1003L58.9691 25.6347L57.8764 23.9944L55.0137 20.008ZM65.0286 17.0326C65.0286 19.1624 64.6464 20.9744 63.8818 22.4685C63.1232 23.9626 62.0877 25.1038 60.7752 25.8922C59.4688 26.6742 57.9999 27.0652 56.3683 27.0652C54.7248 27.0652 53.2498 26.671 51.9433 25.8826C50.6369 25.0943 49.6044 23.953 48.8459 22.459C48.0873 20.9649 47.708 19.1561 47.708 17.0326C47.708 14.9027 48.0873 13.0908 48.8459 11.5967C49.6044 10.1026 50.6369 8.96456 51.9433 8.18255C53.2498 7.39418 54.7248 7 56.3683 7C57.9999 7 59.4688 7.39418 60.7752 8.18255C62.0877 8.96456 63.1232 10.1026 63.8818 11.5967C64.6464 13.0908 65.0286 14.9027 65.0286 17.0326ZM61.0642 17.0326C61.0642 15.6529 60.8686 14.4895 60.4772 13.5422C60.0919 12.5949 59.5471 11.8764 58.8427 11.3869C58.1383 10.8973 57.3135 10.6525 56.3683 10.6525C55.4231 10.6525 54.5983 10.8973 53.894 11.3869C53.1896 11.8764 52.6417 12.5949 52.2504 13.5422C51.8651 14.4895 51.6724 15.6529 51.6724 17.0326C51.6724 18.4122 51.8651 19.5757 52.2504 20.523C52.6417 21.4703 53.1896 22.1888 53.894 22.6783C54.5983 23.1679 55.4231 23.4126 56.3683 23.4126C57.3135 23.4126 58.1383 23.1679 58.8427 22.6783C59.5471 22.1888 60.0919 21.4703 60.4772 20.523C60.8686 19.5757 61.0642 18.4122 61.0642 17.0326Z" fill="black"/>
</svg>
